<svg width="28" height="29" viewBox="0 0 28 29" fill="none" xmlns="http://www.w3.org/2000/svg">
<path d="M24.7046 15.9198C24.7646 15.4667 24.7946 14.9984 24.7946 14.5C24.7946 14.0167 24.7646 13.5333 24.6897 13.0802L27.7331 10.6937C28.003 10.4823 28.078 10.0745 27.913 9.7724L25.0345 4.75781C24.8546 4.42552 24.4798 4.31979 24.1499 4.42552L20.5667 5.87552C19.8171 5.30156 19.0225 4.81823 18.1379 4.45573L17.5982 0.619271C17.5382 0.256771 17.2384 0 16.8786 0H11.1214C10.7616 0 10.4768 0.256771 10.4168 0.619271L9.87706 4.45573C8.9925 4.81823 8.18291 5.31667 7.44828 5.87552L3.86507 4.42552C3.53523 4.30469 3.16042 4.42552 2.98051 4.75781L0.116942 9.7724C-0.062968 10.0896 -0.00299815 10.4823 0.296852 10.6937L3.34033 13.0802C3.26537 13.5333 3.2054 14.0318 3.2054 14.5C3.2054 14.9682 3.23538 15.4667 3.31034 15.9198L0.266867 18.3063C-0.00299813 18.5177 -0.0779605 18.9255 0.0869571 19.2276L2.96552 24.2422C3.14543 24.5745 3.52024 24.6802 3.85008 24.5745L7.43328 23.1245C8.18291 23.6984 8.97751 24.1818 9.86207 24.5443L10.4018 28.3807C10.4768 28.7432 10.7616 29 11.1214 29H16.8786C17.2384 29 17.5382 28.7432 17.5832 28.3807L18.1229 24.5443C19.0075 24.1818 19.8171 23.6984 20.5517 23.1245L24.1349 24.5745C24.4648 24.6953 24.8396 24.5745 25.0195 24.2422L27.8981 19.2276C28.078 18.8953 28.003 18.5177 27.7181 18.3063L24.7046 15.9198ZM14 19.9375C11.0315 19.9375 8.6027 17.4906 8.6027 14.5C8.6027 11.5094 11.0315 9.0625 14 9.0625C16.9685 9.0625 19.3973 11.5094 19.3973 14.5C19.3973 17.4906 16.9685 19.9375 14 19.9375Z" fill="white"/>
</svg>
