<svg width="34" height="19" viewBox="0 0 34 19" fill="none" xmlns="http://www.w3.org/2000/svg">
<path d="M34 3.09091C34 4.79091 32.6091 6.18182 30.9091 6.18182C30.6309 6.18182 30.3682 6.15091 30.1209 6.07364L24.6191 11.56C24.6964 11.8073 24.7273 12.0855 24.7273 12.3636C24.7273 14.0636 23.3364 15.4545 21.6364 15.4545C19.9364 15.4545 18.5455 14.0636 18.5455 12.3636C18.5455 12.0855 18.5764 11.8073 18.6536 11.56L14.7127 7.61909C14.4655 7.69636 14.1873 7.72727 13.9091 7.72727C13.6309 7.72727 13.3527 7.69636 13.1055 7.61909L6.07364 14.6664C6.15091 14.9136 6.18182 15.1764 6.18182 15.4545C6.18182 17.1545 4.79091 18.5455 3.09091 18.5455C1.39091 18.5455 0 17.1545 0 15.4545C0 13.7545 1.39091 12.3636 3.09091 12.3636C3.36909 12.3636 3.63182 12.3945 3.87909 12.4718L10.9264 5.44C10.8491 5.19273 10.8182 4.91455 10.8182 4.63636C10.8182 2.93636 12.2091 1.54545 13.9091 1.54545C15.6091 1.54545 17 2.93636 17 4.63636C17 4.91455 16.9691 5.19273 16.8918 5.44L20.8327 9.38091C21.08 9.30364 21.3582 9.27273 21.6364 9.27273C21.9145 9.27273 22.1927 9.30364 22.44 9.38091L27.9264 3.87909C27.8491 3.63182 27.8182 3.36909 27.8182 3.09091C27.8182 1.39091 29.2091 0 30.9091 0C32.6091 0 34 1.39091 34 3.09091Z" fill="white"/>
</svg>
